<svg width="32" height="32" viewBox="0 0 32 32" fill="none" xmlns="http://www.w3.org/2000/svg">
  <!-- Simplified head profile icon -->
  <path d="M8 6 C8 4, 10 2, 14 2 C18 2, 20 4, 20 6 L20 12 C20 14, 18 16, 16 17 L16 20 C16 22, 14 24, 12 24 C10 24, 8 22, 8 20 L8 17 C6 16, 4 14, 4 12 Z" 
        fill="#0D9373" stroke="#07C983" stroke-width="0.5"/>
  
  <!-- Simplified circuitry nodes -->
  <circle cx="12" cy="8" r="0.8" fill="#07C983"/>
  <circle cx="15" cy="7" r="0.8" fill="#07C983"/>
  <circle cx="16" cy="10" r="0.8" fill="#07C983"/>
  <circle cx="13" cy="11" r="0.8" fill="#07C983"/>
  
  <!-- Circuit connections -->
  <line x1="12" y1="8" x2="15" y2="7" stroke="#07C983" stroke-width="0.5"/>
  <line x1="15" y1="7" x2="16" y2="10" stroke="#07C983" stroke-width="0.5"/>
  <line x1="16" y1="10" x2="13" y2="11" stroke="#07C983" stroke-width="0.5"/>
  <line x1="13" y1="11" x2="12" y2="8" stroke="#07C983" stroke-width="0.5"/>
  
  <!-- Simplified telephone receiver -->
  <path d="M9 12 L7 11 L6 12 L7 13 Z" fill="#0D9373" stroke="#07C983" stroke-width="0.5"/>
  <path d="M17 14 L19 15 L20 14 L19 13 Z" fill="#0D9373" stroke="#07C983" stroke-width="0.5"/>
  <line x1="8" y1="12.5" x2="18" y2="13.5" stroke="#07C983" stroke-width="1"/>
</svg>
